<?xml version="1.0" encoding="UTF-8" standalone="no"?>
<!DOCTYPE svg PUBLIC "-//W3C//DTD SVG 1.1//EN"
 "http://www.w3.org/Graphics/SVG/1.1/DTD/svg11.dtd">
<!-- Generated by graphviz version 5.0.0 (20220707.1540)
 -->
<!-- Title: dependencies Pages: 1 -->
<svg width="969pt" height="247pt"
 viewBox="0.00 0.00 969.00 246.80" xmlns="http://www.w3.org/2000/svg" xmlns:xlink="http://www.w3.org/1999/xlink">
<g id="graph0" class="graph" transform="scale(1 1) rotate(0) translate(4 242.8)">
<title>dependencies</title>
<polygon fill="white" stroke="transparent" points="-4,4 -4,-242.8 965,-242.8 965,4 -4,4"/>
<text text-anchor="middle" x="480.5" y="-8.2" font-family="sans-serif" font-size="14.00">dependencies</text>
<g id="clust1" class="cluster">
<title>cluster_AppModule</title>
<polygon fill="none" stroke="black" stroke-dasharray="1,5" points="8,-32.8 8,-230.8 953,-230.8 953,-32.8 8,-32.8"/>
</g>
<g id="clust2" class="cluster">
<title>cluster_AppModule_declarations</title>
<polygon fill="none" stroke="black" points="690,-40.8 690,-92.8 945,-92.8 945,-40.8 690,-40.8"/>
</g>
<g id="clust7" class="cluster">
<title>cluster_AppModule_bootstrap</title>
<polygon fill="none" stroke="black" points="458,-170.8 458,-222.8 582,-222.8 582,-170.8 458,-170.8"/>
</g>
<g id="clust8" class="cluster">
<title>cluster_AppModule_providers</title>
<polygon fill="none" stroke="black" points="16,-40.8 16,-92.8 682,-92.8 682,-40.8 16,-40.8"/>
</g>
<!-- AppComponent -->
<g id="node1" class="node">
<title>AppComponent</title>
<polygon fill="#ffffb3" stroke="black" points="936.94,-84.8 831.06,-84.8 831.06,-48.8 936.94,-48.8 936.94,-84.8"/>
<text text-anchor="middle" x="884" y="-62.6" font-family="Times,serif" font-size="14.00">AppComponent</text>
</g>
<!-- AppModule -->
<g id="node3" class="node">
<title>AppModule</title>
<polygon fill="#8dd3c7" stroke="black" points="561.66,-149.8 558.66,-153.8 537.66,-153.8 534.66,-149.8 478.34,-149.8 478.34,-113.8 561.66,-113.8 561.66,-149.8"/>
<text text-anchor="middle" x="520" y="-127.6" font-family="Times,serif" font-size="14.00">AppModule</text>
</g>
<!-- AppComponent&#45;&gt;AppModule -->
<g id="edge1" class="edge">
<title>AppComponent&#45;&gt;AppModule</title>
<path fill="none" stroke="black" d="M884,-85.08C884,-106.12 884,-137.8 884,-137.8 884,-137.8 571.76,-137.8 571.76,-137.8"/>
<polygon fill="black" stroke="black" points="571.76,-134.3 561.76,-137.8 571.76,-141.3 571.76,-134.3"/>
</g>
<!-- HomeComponent -->
<g id="node2" class="node">
<title>HomeComponent</title>
<polygon fill="#ffffb3" stroke="black" points="813.55,-84.8 698.45,-84.8 698.45,-48.8 813.55,-48.8 813.55,-84.8"/>
<text text-anchor="middle" x="756" y="-62.6" font-family="Times,serif" font-size="14.00">HomeComponent</text>
</g>
<!-- HomeComponent&#45;&gt;AppModule -->
<g id="edge2" class="edge">
<title>HomeComponent&#45;&gt;AppModule</title>
<path fill="none" stroke="black" d="M756,-84.82C756,-102.17 756,-125.8 756,-125.8 756,-125.8 571.92,-125.8 571.92,-125.8"/>
<polygon fill="black" stroke="black" points="571.92,-122.3 561.92,-125.8 571.92,-129.3 571.92,-122.3"/>
</g>
<!-- AppComponent  -->
<g id="node4" class="node">
<title>AppComponent </title>
<polygon fill="#80b1d3" stroke="black" points="574.44,-214.8 465.56,-214.8 465.56,-178.8 574.44,-178.8 574.44,-214.8"/>
<text text-anchor="middle" x="520" y="-192.6" font-family="Times,serif" font-size="14.00">AppComponent </text>
</g>
<!-- AppModule&#45;&gt;AppComponent  -->
<g id="edge3" class="edge">
<title>AppModule&#45;&gt;AppComponent </title>
<path fill="none" stroke="black" stroke-dasharray="1,5" d="M520,-149.91C520,-149.91 520,-168.79 520,-168.79"/>
<polygon fill="black" stroke="black" points="516.5,-168.79 520,-178.79 523.5,-168.79 516.5,-168.79"/>
</g>
<!-- DatabaseService -->
<g id="node5" class="node">
<title>DatabaseService</title>
<ellipse fill="#fdb462" stroke="black" cx="599" cy="-66.8" rx="75.26" ry="18"/>
<text text-anchor="middle" x="599" y="-62.6" font-family="Times,serif" font-size="14.00">DatabaseService</text>
</g>
<!-- DatabaseService&#45;&gt;AppModule -->
<g id="edge4" class="edge">
<title>DatabaseService&#45;&gt;AppModule</title>
<path fill="none" stroke="black" d="M542.72,-79.03C542.72,-79.03 542.72,-103.48 542.72,-103.48"/>
<polygon fill="black" stroke="black" points="539.22,-103.48 542.72,-113.48 546.22,-103.48 539.22,-103.48"/>
</g>
<!-- DetailService -->
<g id="node6" class="node">
<title>DetailService</title>
<ellipse fill="#fdb462" stroke="black" cx="442" cy="-66.8" rx="63.68" ry="18"/>
<text text-anchor="middle" x="442" y="-62.6" font-family="Times,serif" font-size="14.00">DetailService</text>
</g>
<!-- DetailService&#45;&gt;AppModule -->
<g id="edge5" class="edge">
<title>DetailService&#45;&gt;AppModule</title>
<path fill="none" stroke="black" d="M491.88,-78.12C491.88,-78.12 491.88,-103.74 491.88,-103.74"/>
<polygon fill="black" stroke="black" points="488.38,-103.74 491.88,-113.74 495.38,-103.74 488.38,-103.74"/>
</g>
<!-- InitializeAppService -->
<g id="node7" class="node">
<title>InitializeAppService</title>
<ellipse fill="#fdb462" stroke="black" cx="269" cy="-66.8" rx="90.88" ry="18"/>
<text text-anchor="middle" x="269" y="-62.6" font-family="Times,serif" font-size="14.00">InitializeAppService</text>
</g>
<!-- InitializeAppService&#45;&gt;AppModule -->
<g id="edge6" class="edge">
<title>InitializeAppService&#45;&gt;AppModule</title>
<path fill="none" stroke="black" d="M269,-84.82C269,-102.17 269,-125.8 269,-125.8 269,-125.8 468.27,-125.8 468.27,-125.8"/>
<polygon fill="black" stroke="black" points="468.27,-129.3 478.27,-125.8 468.27,-122.3 468.27,-129.3"/>
</g>
<!-- SQLiteService -->
<g id="node8" class="node">
<title>SQLiteService</title>
<ellipse fill="#fdb462" stroke="black" cx="92" cy="-66.8" rx="67.78" ry="18"/>
<text text-anchor="middle" x="92" y="-62.6" font-family="Times,serif" font-size="14.00">SQLiteService</text>
</g>
<!-- SQLiteService&#45;&gt;AppModule -->
<g id="edge7" class="edge">
<title>SQLiteService&#45;&gt;AppModule</title>
<path fill="none" stroke="black" d="M92,-85.08C92,-106.12 92,-137.8 92,-137.8 92,-137.8 468.18,-137.8 468.18,-137.8"/>
<polygon fill="black" stroke="black" points="468.18,-141.3 478.18,-137.8 468.18,-134.3 468.18,-141.3"/>
</g>
</g>
</svg>
